<svg width="24" height="24" viewBox="0 0 24 24" fill="none" xmlns="http://www.w3.org/2000/svg">
<g clip-path="url(#clip0_8_852)">
<path d="M23.5 20.6667C23.5 22.508 22.008 24 20.1667 24H2.83333C0.992667 24 -0.5 22.508 -0.5 20.6667V3.33333C-0.5 1.492 0.992667 0 2.83333 0H20.1667C22.008 0 23.5 1.492 23.5 3.33333V20.6667Z" fill="#3F51B5"/>
<path d="M15.0787 11.96H12.8333V19.5H9.5V11.96H7.5V9.64H9.5V8.2422C9.50133 6.20756 10.4727 5 13.228 5H15.5V7.32H13.9753C12.9027 7.32 12.8333 7.668 12.8333 8.31934V9.64H15.5L15.0787 11.96Z" fill="white"/>
</g>
<defs>
<clipPath id="clip0_8_852">
<rect width="24" height="24" fill="white"/>
</clipPath>
</defs>
</svg>
